<?xml version="1.0" encoding="UTF-8"?>
<!DOCTYPE svg PUBLIC "-//W3C//DTD SVG 1.1//EN" "http://www.w3.org/Graphics/SVG/1.1/DTD/svg11.dtd">
<svg xmlns="http://www.w3.org/2000/svg" version="1.1" width="256px" height="256px" style="shape-rendering:geometricPrecision; text-rendering:geometricPrecision; image-rendering:optimizeQuality; fill-rule:evenodd; clip-rule:evenodd" xmlns:xlink="http://www.w3.org/1999/xlink">
<g><path style="opacity:0.917" fill="#030706" d="M 0.5,-0.5 C 85.1667,-0.5 169.833,-0.5 254.5,-0.5C 254.5,0.166667 254.833,0.5 255.5,0.5C 255.5,8.83333 255.5,17.1667 255.5,25.5C 252.04,33.1845 248.373,40.8512 244.5,48.5C 245.154,50.1151 245.654,51.7818 246,53.5C 245.826,71.9375 246.993,90.2708 249.5,108.5C 249.158,114.573 248.324,120.573 247,126.5C 246.667,168.833 246.333,211.167 246,253.5C 245.283,254.044 244.783,254.711 244.5,255.5C 209.167,255.5 173.833,255.5 138.5,255.5C 138.217,254.711 137.717,254.044 137,253.5C 136.667,211.167 136.333,168.833 136,126.5C 132.667,114.5 132.667,102.5 136,90.5C 136.333,78.1667 136.667,65.8333 137,53.5C 137.273,51.8988 137.773,50.3988 138.5,49C 134.689,41.2115 131.022,33.3782 127.5,25.5C 124.026,33.2526 120.359,40.9193 116.5,48.5C 117.154,50.1151 117.654,51.7818 118,53.5C 117.826,71.9404 118.993,90.2737 121.5,108.5C 121.273,114.587 120.44,120.587 119,126.5C 118.667,168.833 118.333,211.167 118,253.5C 117.283,254.044 116.783,254.711 116.5,255.5C 81.1667,255.5 45.8333,255.5 10.5,255.5C 10.2172,254.711 9.71719,254.044 9,253.5C 8.66667,211.167 8.33333,168.833 8,126.5C 4.71657,114.509 4.71657,102.509 8,90.5C 8.33333,78.1667 8.66667,65.8333 9,53.5C 9.27338,51.8988 9.77338,50.3988 10.5,49C 6.71867,41.1241 3.05201,33.2908 -0.5,25.5C -0.5,17.1667 -0.5,8.83333 -0.5,0.5C 0.166667,0.5 0.5,0.166667 0.5,-0.5 Z M 7.5,9.5 C 44.5015,9.33335 81.5015,9.50001 118.5,10C 119.908,12.2921 119.741,14.4588 118,16.5C 81.2395,15.5037 44.4061,15.1704 7.5,15.5C 7.5,13.5 7.5,11.5 7.5,9.5 Z M 135.5,9.5 C 172.502,9.33335 209.502,9.50001 246.5,10C 247.908,12.2921 247.741,14.4588 246,16.5C 209.239,15.5037 172.406,15.1704 135.5,15.5C 135.5,13.5 135.5,11.5 135.5,9.5 Z M 11.5,27.5 C 46.1731,27.1668 80.8397,27.5001 115.5,28.5C 114.314,32.2565 112.481,35.5898 110,38.5C 107.226,37.4642 104.393,36.6309 101.5,36C 76.4984,34.0768 51.4984,34.0768 26.5,36C 23.1675,36.2488 20.0008,37.0821 17,38.5C 14.3177,35.3046 12.4843,31.638 11.5,27.5 Z M 139.5,27.5 C 174.173,27.1668 208.84,27.5001 243.5,28.5C 242.314,32.2565 240.481,35.5898 238,38.5C 235.226,37.4642 232.393,36.6309 229.5,36C 204.166,34.0512 178.832,34.0512 153.5,36C 150.511,36.3304 147.678,37.1638 145,38.5C 142.318,35.3046 140.484,31.638 139.5,27.5 Z M 47.5,45.5 C 65.1829,45.4045 82.8495,45.9045 100.5,47C 104.896,47.7297 107.73,50.2297 109,54.5C 109.5,64.4944 109.666,74.4944 109.5,84.5C 107.833,84.5 106.167,84.5 104.5,84.5C 104.688,78.1115 104.188,71.7782 103,65.5C 102.628,56.7929 98.1283,52.6262 89.5,53C 69.6813,50.5531 50.0146,51.2198 30.5,55C 28.1765,58.0995 26.6765,61.5995 26,65.5C 24.8119,71.7782 24.3119,78.1115 24.5,84.5C 22.1667,84.5 19.8333,84.5 17.5,84.5C 17.3335,74.8276 17.5002,65.1609 18,55.5C 18.9575,50.2096 22.1242,47.3763 27.5,47C 34.346,46.8283 41.0126,46.3283 47.5,45.5 Z M 175.5,45.5 C 193.183,45.4045 210.85,45.9045 228.5,47C 233.333,47.8333 236.167,50.6667 237,55.5C 237.5,65.1609 237.666,74.8276 237.5,84.5C 235.833,84.5 234.167,84.5 232.5,84.5C 232.957,75.6175 231.79,66.9509 229,58.5C 228.535,57.0692 227.701,55.9025 226.5,55C 203.833,50.3333 181.167,50.3333 158.5,55C 156.036,58.0492 154.536,61.5492 154,65.5C 152.812,71.7782 152.312,78.1115 152.5,84.5C 150.167,84.5 147.833,84.5 145.5,84.5C 145.334,74.4944 145.5,64.4944 146,54.5C 147.396,49.7723 150.562,47.2723 155.5,47C 162.346,46.8283 169.013,46.3283 175.5,45.5 Z M 50.5,62.5 C 64.8889,62.1924 79.2222,62.859 93.5,64.5C 95.1325,71.0508 95.7992,77.7175 95.5,84.5C 74.8333,84.5 54.1667,84.5 33.5,84.5C 33.2008,77.7175 33.8675,71.0508 35.5,64.5C 40.6804,64.1532 45.6804,63.4865 50.5,62.5 Z M 178.5,62.5 C 192.889,62.1924 207.222,62.859 221.5,64.5C 223.133,71.0508 223.799,77.7175 223.5,84.5C 202.833,84.5 182.167,84.5 161.5,84.5C 161.201,77.7175 161.867,71.0508 163.5,64.5C 168.68,64.1532 173.68,63.4865 178.5,62.5 Z M 16.5,95.5 C 47.8351,95.3334 79.1684,95.5 110.5,96C 112.802,104.376 113.135,112.876 111.5,121.5C 79.8316,121.667 48.1649,121.5 16.5,121C 13.8571,112.5 13.8571,104 16.5,95.5 Z M 144.5,95.5 C 175.835,95.3334 207.168,95.5 238.5,96C 241.167,104.333 241.167,112.667 238.5,121C 206.835,121.5 175.168,121.667 143.5,121.5C 141.887,112.711 142.221,104.044 144.5,95.5 Z M 17.5,132.5 C 48.1667,132.5 78.8333,132.5 109.5,132.5C 109.5,169.833 109.5,207.167 109.5,244.5C 78.8333,244.5 48.1667,244.5 17.5,244.5C 17.5,207.167 17.5,169.833 17.5,132.5 Z M 145.5,132.5 C 176.167,132.5 206.833,132.5 237.5,132.5C 237.5,169.833 237.5,207.167 237.5,244.5C 206.833,244.5 176.167,244.5 145.5,244.5C 145.5,207.167 145.5,169.833 145.5,132.5 Z"/></g>
</svg>
