<?xml version="1.0" encoding="UTF-8"?>
<!DOCTYPE svg PUBLIC "-//W3C//DTD SVG 1.1//EN" "http://www.w3.org/Graphics/SVG/1.1/DTD/svg11.dtd">
<svg xmlns="http://www.w3.org/2000/svg" version="1.1" width="256px" height="256px" style="shape-rendering:geometricPrecision; text-rendering:geometricPrecision; image-rendering:optimizeQuality; fill-rule:evenodd; clip-rule:evenodd" xmlns:xlink="http://www.w3.org/1999/xlink">
<g><path style="opacity:0.93" fill="#030706" d="M 28.5,-0.5 C 94.5,-0.5 160.5,-0.5 226.5,-0.5C 234.247,2.08524 239.081,7.41857 241,15.5C 241.333,41.1667 241.667,66.8333 242,92.5C 246.006,121.719 250.506,150.719 255.5,179.5C 255.5,204.5 255.5,229.5 255.5,254.5C 254.833,254.5 254.5,254.833 254.5,255.5C 250.5,255.5 246.5,255.5 242.5,255.5C 241.417,245.751 238.251,236.751 233,228.5C 231.745,227.789 230.579,226.956 229.5,226C 216.167,225.833 202.833,225.667 189.5,225.5C 175.41,225.35 161.41,225.85 147.5,227C 144.943,229.892 142.776,233.059 141,236.5C 139.218,242.956 137.384,249.289 135.5,255.5C 130.167,255.5 124.833,255.5 119.5,255.5C 117.609,249.235 115.776,242.902 114,236.5C 112.224,233.059 110.057,229.892 107.5,227C 93.5903,225.85 79.5903,225.35 65.5,225.5C 52.1667,225.667 38.8333,225.833 25.5,226C 21.5415,228.965 18.7081,232.798 17,237.5C 15.3071,243.468 13.8071,249.468 12.5,255.5C 8.5,255.5 4.5,255.5 0.5,255.5C 0.5,254.833 0.166667,254.5 -0.5,254.5C -0.5,229.5 -0.5,204.5 -0.5,179.5C 4.40082,150.371 8.90082,121.038 13,91.5C 13.3333,65.8333 13.6667,40.1667 14,14.5C 16.3509,6.98409 21.1842,1.98409 28.5,-0.5 Z M 34.5,7.5 C 97.5585,7.01094 160.558,7.51094 223.5,9C 228.622,11.0541 231.455,14.8874 232,20.5C 232.5,41.8307 232.667,63.1641 232.5,84.5C 219.5,84.5 206.5,84.5 193.5,84.5C 193.714,78.4171 191.048,74.2504 185.5,72C 146.5,71.3333 107.5,71.3333 68.5,72C 62.4485,73.9756 59.7819,78.1423 60.5,84.5C 47.8333,84.5 35.1667,84.5 22.5,84.5C 22.3334,63.1641 22.5,41.8307 23,20.5C 24.0958,13.5836 27.9291,9.25031 34.5,7.5 Z M 72.5,82.5 C 108.833,82.5 145.167,82.5 181.5,82.5C 181.805,87.7616 181.471,92.9283 180.5,98C 144.502,98.5 108.502,98.6667 72.5,98.5C 72.5,93.1667 72.5,87.8333 72.5,82.5 Z M 21.5,95.5 C 34.5,95.5 47.5,95.5 60.5,95.5C 60.2382,102.73 63.5715,107.23 70.5,109C 108.167,109.667 145.833,109.667 183.5,109C 190.485,107.184 193.819,102.684 193.5,95.5C 206.833,95.5 220.167,95.5 233.5,95.5C 235.574,110.178 237.407,124.845 239,139.5C 233.46,132.647 226.294,128.813 217.5,128C 198.5,127.333 179.5,127.333 160.5,128C 153.756,129.04 147.756,131.706 142.5,136C 136.543,141.787 131.543,148.287 127.5,155.5C 120.658,140.155 108.991,130.988 92.5,128C 74.1667,127.333 55.8333,127.333 37.5,128C 28.7063,128.813 21.5397,132.647 16,139.5C 17.4992,124.829 19.3325,110.162 21.5,95.5 Z M 36.5,138.5 C 55.8362,138.333 75.1695,138.5 94.5,139C 105.144,142.308 112.644,149.141 117,159.5C 120.042,166.876 121.875,174.542 122.5,182.5C 84.4985,182.667 46.4985,182.5 8.5,182C 9.46309,167.744 14.7964,155.411 24.5,145C 28.1468,142.013 32.1468,139.846 36.5,138.5 Z M 160.5,138.5 C 179.503,138.333 198.503,138.5 217.5,139C 227.609,141.147 234.775,146.981 239,156.5C 242.98,164.589 245.48,173.089 246.5,182C 208.501,182.5 170.501,182.667 132.5,182.5C 133.243,167.419 138.91,154.586 149.5,144C 152.99,141.588 156.657,139.755 160.5,138.5 Z M 8.5,193.5 C 46.5,193.5 84.5,193.5 122.5,193.5C 122.667,206.171 122.5,218.838 122,231.5C 119.225,224.066 114.391,218.566 107.5,215C 79.5,214.333 51.5,214.333 23.5,215C 15.601,219.283 10.4343,225.783 8,234.5C 7.18601,220.758 7.35267,207.092 8.5,193.5 Z M 132.5,193.5 C 170.5,193.5 208.5,193.5 246.5,193.5C 246.806,207.174 246.973,220.841 247,234.5C 244.566,225.783 239.399,219.283 231.5,215C 203.5,214.333 175.5,214.333 147.5,215C 140.582,218.59 135.748,224.09 133,231.5C 132.5,218.838 132.333,206.171 132.5,193.5 Z"/></g>
</svg>
