<?xml version="1.0" encoding="UTF-8"?>
<!DOCTYPE svg PUBLIC "-//W3C//DTD SVG 1.1//EN" "http://www.w3.org/Graphics/SVG/1.1/DTD/svg11.dtd">
<svg xmlns="http://www.w3.org/2000/svg" version="1.1" width="256px" height="256px" style="shape-rendering:geometricPrecision; text-rendering:geometricPrecision; image-rendering:optimizeQuality; fill-rule:evenodd; clip-rule:evenodd" xmlns:xlink="http://www.w3.org/1999/xlink">
<g><path style="opacity:0.929" fill="#070908" d="M 79.5,-0.5 C 111.833,-0.5 144.167,-0.5 176.5,-0.5C 185.51,3.46597 190.676,10.466 192,20.5C 192.333,44.8333 192.667,69.1667 193,93.5C 198.667,124.503 204.334,155.503 210,186.5C 210.667,208.833 210.667,231.167 210,253.5C 209.283,254.044 208.783,254.711 208.5,255.5C 203.5,255.5 198.5,255.5 193.5,255.5C 192.321,244.777 187.988,235.61 180.5,228C 179.167,227.333 177.833,226.667 176.5,226C 160.5,225.833 144.5,225.667 128.5,225.5C 111.436,225.354 94.4364,225.854 77.5,227C 74,229.167 71.1667,232 69,235.5C 65.9207,241.904 63.754,248.571 62.5,255.5C 57.5,255.5 52.5,255.5 47.5,255.5C 47.0133,254.527 46.5133,253.527 46,252.5C 45.3333,230.5 45.3333,208.5 46,186.5C 51.6667,155.167 57.3333,123.833 63,92.5C 63.3333,68.5 63.6667,44.5 64,20.5C 65.3237,10.466 70.4904,3.46597 79.5,-0.5 Z M 81.5,10.5 C 112.502,10.3334 143.502,10.5 174.5,11C 177.807,13.7783 179.974,17.2783 181,21.5C 181.5,42.8307 181.667,64.1641 181.5,85.5C 174.167,85.5 166.833,85.5 159.5,85.5C 160.462,80.2597 158.795,76.0931 154.5,73C 145.738,71.8761 136.905,71.3761 128,71.5C 120.167,71.6667 112.333,71.8333 104.5,72C 98.7025,74.077 95.7025,78.2437 95.5,84.5C 88.5316,85.497 81.5316,85.8303 74.5,85.5C 74.3334,64.4974 74.5,43.4974 75,22.5C 75.8746,17.7475 78.0413,13.7475 81.5,10.5 Z M 107.5,82.5 C 121.167,82.5 134.833,82.5 148.5,82.5C 148.5,87.8333 148.5,93.1667 148.5,98.5C 134.5,98.5 120.5,98.5 106.5,98.5C 106.218,93.0735 106.551,87.7401 107.5,82.5 Z M 73.5,96.5 C 80.8409,96.3337 88.1742,96.5003 95.5,97C 95.5199,102.376 97.8532,106.376 102.5,109C 119.167,109.667 135.833,109.667 152.5,109C 158.002,106.653 160.336,102.486 159.5,96.5C 167.167,96.5 174.833,96.5 182.5,96.5C 185.12,111.224 187.62,125.891 190,140.5C 183.683,134.424 176.183,130.591 167.5,129C 141.167,128.333 114.833,128.333 88.5,129C 79.8217,130.589 72.3217,134.422 66,140.5C 68.167,125.832 70.667,111.166 73.5,96.5 Z M 89.5,139.5 C 116.551,139.035 143.551,139.535 170.5,141C 187.262,149.506 196.596,163.172 198.5,182C 151.976,183.661 105.309,183.994 58.5,183C 59.5905,162.008 69.9238,147.508 89.5,139.5 Z M 57.5,193.5 C 104.501,193.333 151.501,193.5 198.5,194C 199.656,207.425 199.822,220.925 199,234.5C 195.559,226.059 189.726,219.893 181.5,216C 163.717,214.86 145.883,214.36 128,214.5C 110.117,214.36 92.2834,214.86 74.5,216C 66.2742,219.893 60.4409,226.059 57,234.5C 56.186,220.758 56.3527,207.092 57.5,193.5 Z"/></g>
</svg>
