<?xml version="1.0" encoding="UTF-8"?>
<!DOCTYPE svg PUBLIC "-//W3C//DTD SVG 1.1//EN" "http://www.w3.org/Graphics/SVG/1.1/DTD/svg11.dtd">
<svg xmlns="http://www.w3.org/2000/svg" version="1.1" width="256px" height="256px" style="shape-rendering:geometricPrecision; text-rendering:geometricPrecision; image-rendering:optimizeQuality; fill-rule:evenodd; clip-rule:evenodd" xmlns:xlink="http://www.w3.org/1999/xlink">
<g><path style="opacity:0.919" fill="#090b0a" d="M 255.5,108.5 C 255.5,115.5 255.5,122.5 255.5,129.5C 251.217,141.116 243.217,149.116 231.5,153.5C 230.916,171.528 230.083,189.528 229,207.5C 225.042,220.795 216.208,228.295 202.5,230C 152.833,230.667 103.167,230.667 53.5,230C 37.2487,227.414 28.082,217.914 26,201.5C 25.8329,185.49 25.3329,169.49 24.5,153.5C 11.1471,148.489 2.8138,139.156 -0.5,125.5C -0.5,121.167 -0.5,116.833 -0.5,112.5C 4.41837,94.4213 16.2517,84.4213 35,82.5C 35.0509,68.0985 35.7175,53.7652 37,39.5C 40.2968,31.7625 46.1301,27.2625 54.5,26C 105.204,25.0229 155.871,25.3563 206.5,27C 213.661,29.8078 218.161,34.9745 220,42.5C 220.333,55.8333 220.667,69.1667 221,82.5C 238.133,83.8107 249.633,92.4774 255.5,108.5 Z M 54.5,36.5 C 104.56,36.0139 154.56,36.5139 204.5,38C 207.467,40.1005 209.3,42.9338 210,46.5C 210.667,59.1667 210.667,71.8333 210,84.5C 191.522,92.7729 183.356,107.106 185.5,127.5C 147.167,127.5 108.833,127.5 70.5,127.5C 72.6421,107.101 64.4755,92.7679 46,84.5C 45.3333,71.8333 45.3333,59.1667 46,46.5C 47.2892,41.7209 50.1225,38.3875 54.5,36.5 Z M 30.5,93.5 C 44.308,92.8278 53.808,98.8278 59,111.5C 59.0731,128.544 59.7397,145.544 61,162.5C 63.2563,167.757 67.0896,171.257 72.5,173C 109.5,173.667 146.5,173.667 183.5,173C 191.442,170.388 195.608,164.888 196,156.5C 196.718,143.987 196.552,131.487 195.5,119C 197.791,102.039 207.458,93.7053 224.5,94C 238.046,97.0513 245.379,105.551 246.5,119.5C 244.198,135.138 235.198,143.471 219.5,144.5C 219.667,164.503 219.5,184.503 219,204.5C 216.742,212.389 211.575,217.222 203.5,219C 153.167,219.667 102.833,219.667 52.5,219C 43.2648,216.763 37.7648,210.93 36,201.5C 35.5001,182.503 35.3334,163.503 35.5,144.5C 15.4948,141.665 7.32815,130.332 11,110.5C 14.936,101.721 21.436,96.054 30.5,93.5 Z M 76.5,138.5 C 110.835,138.333 145.168,138.5 179.5,139C 182.232,139.398 184.065,140.898 185,143.5C 185.667,148.167 185.667,152.833 185,157.5C 183.891,159.815 182.057,161.315 179.5,162C 145.167,162.667 110.833,162.667 76.5,162C 71.051,160.175 69.051,156.342 70.5,150.5C 69.0581,144.524 71.0581,140.524 76.5,138.5 Z"/></g>
</svg>
